<svg width="92" height="92" viewBox="0 0 92 92" fill="none" xmlns="http://www.w3.org/2000/svg">
<g clip-path="url(#clip0_27_77)">
<path d="M0 46C0 20.5949 20.5949 0 46 0V0C71.4051 0 92 20.5949 92 46V46C92 71.4051 71.4051 92 46 92V92C20.5949 92 0 71.4051 0 46V46Z" fill="white"/>
<path d="M46 82C65.8823 82 82 65.8823 82 46C82 26.1177 65.8823 10 46 10C26.1177 10 10 26.1177 10 46C10 65.8823 26.1177 82 46 82Z" stroke="black"/>
<path d="M82 50C84.2091 50 86 48.2091 86 46C86 43.7909 84.2091 42 82 42C79.7909 42 78 43.7909 78 46C78 48.2091 79.7909 50 82 50Z" fill="#5BC871"/>
<path d="M10 50C12.2091 50 14 48.2091 14 46C14 43.7909 12.2091 42 10 42C7.79086 42 6 43.7909 6 46C6 48.2091 7.79086 50 10 50Z" fill="#5BC871"/>
<path d="M46 86C48.2091 86 50 84.2091 50 82C50 79.7909 48.2091 78 46 78C43.7909 78 42 79.7909 42 82C42 84.2091 43.7909 86 46 86Z" fill="#5BC871"/>
<path d="M46 14C48.2091 14 50 12.2091 50 10C50 7.79086 48.2091 6 46 6C43.7909 6 42 7.79086 42 10C42 12.2091 43.7909 14 46 14Z" fill="#5BC871"/>
<path d="M46 71C59.8071 71 71 59.8071 71 46C71 32.1929 59.8071 21 46 21C32.1929 21 21 32.1929 21 46C21 59.8071 32.1929 71 46 71Z" stroke="black"/>
<path d="M46 26C48.2091 26 50 24.2091 50 22C50 19.7909 48.2091 18 46 18C43.7909 18 42 19.7909 42 22C42 24.2091 43.7909 26 46 26Z" fill="#5BC871"/>
<path d="M46 74C48.2091 74 50 72.2091 50 70C50 67.7909 48.2091 66 46 66C43.7909 66 42 67.7909 42 70C42 72.2091 43.7909 74 46 74Z" fill="#5BC871"/>
<circle cx="46" cy="46" r="12" fill="black"/>
</g>
<defs>
<clipPath id="clip0_27_77">
<rect width="92" height="92" fill="white"/>
</clipPath>
</defs>
</svg>
